<?xml version="1.0" encoding="utf-8"?>
<!-- Generator: Adobe Illustrator 27.3.1, SVG Export Plug-In . SVG Version: 6.00 Build 0)  -->
<svg version="1.1" id="Слой_1" xmlns="http://www.w3.org/2000/svg" xmlns:xlink="http://www.w3.org/1999/xlink" x="0px" y="0px"
	 viewBox="0 0 550 170" style="enable-background:new 0 0 550 170;" xml:space="preserve">
<style type="text/css">
	.st0{font-family:'CourierNewPS-BoldMT';}
	.st1{font-size:65.1653px;}
</style>
<g>
	<g>
		<path d="M152.84,16.99c-11.27,25.04-21.3,50.64-29.94,76.7c-2.41,7.25-4.7,14.54-6.9,21.87c-0.68,2.25,0.81,5,3.14,5.54
			c2.42,0.55,4.81-0.73,5.54-3.14c7.73-25.78,16.77-51.16,27.09-76.01c1.47-3.53,2.6-6.21,4.21-9.92c1.52-3.51,3.06-7,4.63-10.49
			c0.96-2.14,0.69-4.94-1.61-6.16C157.03,14.34,153.87,14.7,152.84,16.99L152.84,16.99z"/>
	</g>
</g>
<g>
	<g>
		<path d="M107.4,120.5c30.06-9.91,60.11-19.81,90.17-29.72c8.54-2.82,17.08-5.63,25.63-8.45c2.23-0.74,3.92-3.14,3.14-5.54
			c-0.72-2.23-3.14-3.93-5.54-3.14c-30.06,9.91-60.11,19.81-90.17,29.72c-8.54,2.82-17.08,5.63-25.63,8.45
			c-2.23,0.74-3.92,3.14-3.14,5.54C102.59,119.58,105.01,121.29,107.4,120.5L107.4,120.5z"/>
	</g>
</g>
<g>
	<g>
		<path d="M224.6,73.95c-28.2-13.1-56.41-26.2-84.61-39.3C131.99,30.94,124,27.23,116,23.51c-2.13-0.99-4.95-0.67-6.16,1.61
			c-1.05,1.99-0.66,5.1,1.61,6.16c28.2,13.1,56.41,26.2,84.61,39.3c7.99,3.71,15.99,7.43,23.98,11.14c2.13,0.99,4.95,0.67,6.16-1.61
			C227.26,78.12,226.88,75.01,224.6,73.95L224.6,73.95z"/>
	</g>
</g>
<g>
	<g>
		<path d="M123.91,8.79c-8.35,18.75-16.71,37.5-25.06,56.25c-8.32,18.67-16.64,37.35-24.96,56.02c-4.7,10.55-9.4,21.1-14.1,31.65
			c-0.96,2.14-0.69,4.94,1.61,6.16c1.96,1.04,5.13,0.68,6.16-1.61c8.35-18.75,16.71-37.5,25.06-56.25
			c8.32-18.67,16.64-37.35,24.96-56.02c4.7-10.55,9.4-21.1,14.1-31.65c0.96-2.14,0.69-4.94-1.61-6.16
			C128.11,6.14,124.94,6.49,123.91,8.79L123.91,8.79z"/>
	</g>
</g>
<g>
	<g>
		<path d="M62.84,163c10-5.43,20.13-10.61,30.39-15.53c5.06-2.42,10.15-4.78,15.27-7.08c2.6-1.16,5.2-2.31,7.81-3.44
			c1.27-0.55,2.54-1.1,3.81-1.64c0.28-0.12,0.57-0.24,0.85-0.36c0.08-0.03,0.79-0.33,0.2-0.09c0.71-0.3,1.42-0.6,2.13-0.89
			c20.86-8.71,42.16-16.35,63.79-22.9c12.21-3.7,24.54-7.03,36.94-10.02c2.29-0.55,3.87-3.27,3.14-5.54
			c-0.77-2.38-3.08-3.73-5.54-3.14c-22.12,5.33-43.97,11.78-65.43,19.35c-21.68,7.64-42.98,16.39-63.77,26.19
			c-11.54,5.44-22.93,11.22-34.14,17.31c-2.07,1.13-2.9,4.16-1.61,6.16C58.04,163.49,60.63,164.2,62.84,163L62.84,163z"/>
	</g>
</g>
<g>
	<g>
		<path d="M171.98,68.28c-4.66-0.49-9.31-0.98-13.97-1.46c-1.08-0.11-2.45,0.58-3.18,1.32c-0.78,0.78-1.37,2.06-1.32,3.18
			c0.05,1.16,0.43,2.37,1.32,3.18c0.93,0.85,1.93,1.19,3.18,1.32c4.66,0.49,9.31,0.98,13.97,1.46c1.08,0.11,2.45-0.58,3.18-1.32
			c0.78-0.78,1.37-2.06,1.32-3.18c-0.05-1.16-0.43-2.37-1.32-3.18C174.23,68.74,173.23,68.41,171.98,68.28L171.98,68.28z"/>
	</g>
</g>
<g>
	<g>
		<path d="M185.27,64.93c-3.42-4.03-6.84-8.07-10.26-12.1c-0.71-0.84-2.12-1.32-3.18-1.32c-1.1,0-2.42,0.49-3.18,1.32
			c-0.79,0.86-1.37,1.98-1.32,3.18c0.06,1.25,0.51,2.23,1.32,3.18c3.42,4.03,6.84,8.07,10.26,12.1c0.71,0.84,2.12,1.32,3.18,1.32
			c1.1,0,2.42-0.49,3.18-1.32c0.79-0.86,1.37-1.98,1.32-3.18C186.53,66.87,186.08,65.89,185.27,64.93L185.27,64.93z"/>
	</g>
</g>
<text transform="matrix(1 0 0 1 240.9414 65.5063)"><tspan x="0" y="0" class="st0 st1">Default</tspan><tspan x="0" y="78.2" class="st0 st1">CRUD</tspan></text>
</svg>
